<svg width="1200" height="630" viewBox="0 0 1200 630" fill="none" xmlns="http://www.w3.org/2000/svg">
  <!-- Background -->
  <rect width="1200" height="630" fill="#2a2621"/>
  
  <!-- Chess board pattern subtle background -->
  <rect x="50" y="50" width="70" height="70" fill="#3a3631" opacity="0.3"/>
  <rect x="190" y="50" width="70" height="70" fill="#3a3631" opacity="0.3"/>
  <rect x="120" y="120" width="70" height="70" fill="#3a3631" opacity="0.3"/>
  <rect x="1080" y="50" width="70" height="70" fill="#3a3631" opacity="0.3"/>
  <rect x="1010" y="120" width="70" height="70" fill="#3a3631" opacity="0.3"/>
  <rect x="50" y="510" width="70" height="70" fill="#3a3631" opacity="0.3"/>
  <rect x="190" y="510" width="70" height="70" fill="#3a3631" opacity="0.3"/>
  <rect x="1080" y="510" width="70" height="70" fill="#3a3631" opacity="0.3"/>
  
  <!-- Logo chess pattern (centered) -->
  <g transform="translate(500, 200)">
    <circle cx="50" cy="50" r="20" fill="#e4c08a"/>
    <circle cx="150" cy="50" r="20" fill="#d1a35f"/>
    <circle cx="50" cy="150" r="20" fill="#d1a35f"/>
    <circle cx="150" cy="150" r="20" fill="#e4c08a"/>
    <path d="M100 40 L130 70 L100 100 L70 70 Z" fill="#e4c08a" opacity="0.9"/>
    <path d="M100 100 L130 130 L100 160 L70 130 Z" fill="#d1a35f" opacity="0.9"/>
    <circle cx="100" cy="100" r="15" fill="#f6efe6"/>
  </g>
  
  <!-- Title -->
  <text x="600" y="420" font-family="serif" font-size="72" font-weight="bold" fill="#f6efe6" text-anchor="middle">ШАХИ</text>
  
  <!-- Subtitle -->
  <text x="600" y="480" font-family="sans-serif" font-size="32" fill="#d1a35f" text-anchor="middle">Історія гри та фігури</text>
</svg>